<mxfile host="app.diagrams.net" agent="Mozilla/5.0 (Windows NT 10.0; Win64; x64) AppleWebKit/537.36 (KHTML, like Gecko) Chrome/130.0.0.0 Safari/537.36" version="24.8.6">
  <diagram name="Page-1" id="y75syNjmRc6FDbL6nKiI">
    <mxGraphModel dx="1050" dy="1622" grid="1" gridSize="10" guides="1" tooltips="1" connect="1" arrows="1" fold="1" page="1" pageScale="1" pageWidth="850" pageHeight="1100" math="0" shadow="0">
      <root>
        <mxCell id="0" />
        <mxCell id="1" parent="0" />
        <mxCell id="us2BGRI-BixtVyZWDCnk-2" value="Inisialisasi Serial dengan Baud Rate 115200" style="whiteSpace=wrap;strokeWidth=2;" vertex="1" parent="1">
          <mxGeometry x="119" y="118" width="234" height="66" as="geometry" />
        </mxCell>
        <mxCell id="us2BGRI-BixtVyZWDCnk-3" value="Mencetak Menghubungkan ke WiFi..." style="whiteSpace=wrap;strokeWidth=2;" vertex="1" parent="1">
          <mxGeometry x="112" y="234" width="248" height="66" as="geometry" />
        </mxCell>
        <mxCell id="us2BGRI-BixtVyZWDCnk-4" value="Memulai Koneksi WiFi dengan SSID dan Password" style="whiteSpace=wrap;strokeWidth=2;" vertex="1" parent="1">
          <mxGeometry x="112" y="350" width="247" height="66" as="geometry" />
        </mxCell>
        <mxCell id="us2BGRI-BixtVyZWDCnk-5" value="WiFi Terhubung?" style="rhombus;strokeWidth=2;whiteSpace=wrap;" vertex="1" parent="1">
          <mxGeometry x="278" y="466" width="165" height="165" as="geometry" />
        </mxCell>
        <mxCell id="us2BGRI-BixtVyZWDCnk-6" value="Delay 500ms dan Cetak Titik" style="whiteSpace=wrap;strokeWidth=2;" vertex="1" parent="1">
          <mxGeometry x="20" y="704" width="227" height="66" as="geometry" />
        </mxCell>
        <mxCell id="us2BGRI-BixtVyZWDCnk-7" value="Cetak Terhubung ke WiFi dan IP Address" style="whiteSpace=wrap;strokeWidth=2;" vertex="1" parent="1">
          <mxGeometry x="297" y="704" width="237" height="66" as="geometry" />
        </mxCell>
        <mxCell id="us2BGRI-BixtVyZWDCnk-8" value="Inisialisasi Halaman Web pada Endpoint /" style="whiteSpace=wrap;strokeWidth=2;" vertex="1" parent="1">
          <mxGeometry x="298" y="820" width="235" height="66" as="geometry" />
        </mxCell>
        <mxCell id="us2BGRI-BixtVyZWDCnk-9" value="Menambahkan Konten Halaman HTML" style="whiteSpace=wrap;strokeWidth=2;" vertex="1" parent="1">
          <mxGeometry x="307" y="936" width="217" height="66" as="geometry" />
        </mxCell>
        <mxCell id="us2BGRI-BixtVyZWDCnk-10" value="Memulai Server pada Port 80" style="whiteSpace=wrap;strokeWidth=2;" vertex="1" parent="1">
          <mxGeometry x="293" y="1052" width="245" height="66" as="geometry" />
        </mxCell>
        <mxCell id="us2BGRI-BixtVyZWDCnk-11" value="Cetak Server dimulai..." style="whiteSpace=wrap;strokeWidth=2;" vertex="1" parent="1">
          <mxGeometry x="302" y="1168" width="227" height="48" as="geometry" />
        </mxCell>
        <mxCell id="us2BGRI-BixtVyZWDCnk-12" value="Loop Menangani Permintaan Klien" style="whiteSpace=wrap;strokeWidth=2;" vertex="1" parent="1">
          <mxGeometry x="324" y="1266" width="182" height="66" as="geometry" />
        </mxCell>
        <mxCell id="us2BGRI-BixtVyZWDCnk-13" value="Permintaan Klien?" style="rhombus;strokeWidth=2;whiteSpace=wrap;" vertex="1" parent="1">
          <mxGeometry x="412" y="1382" width="177" height="177" as="geometry" />
        </mxCell>
        <mxCell id="us2BGRI-BixtVyZWDCnk-14" value="Menangani Permintaan dan Mengirim HTML" style="whiteSpace=wrap;strokeWidth=2;" vertex="1" parent="1">
          <mxGeometry x="29" y="1632" width="254" height="66" as="geometry" />
        </mxCell>
        <mxCell id="us2BGRI-BixtVyZWDCnk-15" value="Cetak IP Address Setiap 1 Detik" style="whiteSpace=wrap;strokeWidth=2;" vertex="1" parent="1">
          <mxGeometry x="333" y="1632" width="241" height="66" as="geometry" />
        </mxCell>
        <mxCell id="us2BGRI-BixtVyZWDCnk-16" value="" style="curved=1;startArrow=none;endArrow=block;exitX=0.5;exitY=1.01;entryX=0.5;entryY=0.01;rounded=0;" edge="1" parent="1" target="us2BGRI-BixtVyZWDCnk-2">
          <mxGeometry relative="1" as="geometry">
            <Array as="points" />
            <mxPoint x="235.5" y="68" as="sourcePoint" />
          </mxGeometry>
        </mxCell>
        <mxCell id="us2BGRI-BixtVyZWDCnk-17" value="" style="curved=1;startArrow=none;endArrow=block;exitX=0.5;exitY=1.01;entryX=0.5;entryY=0.01;rounded=0;" edge="1" parent="1" source="us2BGRI-BixtVyZWDCnk-2" target="us2BGRI-BixtVyZWDCnk-3">
          <mxGeometry relative="1" as="geometry">
            <Array as="points" />
          </mxGeometry>
        </mxCell>
        <mxCell id="us2BGRI-BixtVyZWDCnk-18" value="" style="curved=1;startArrow=none;endArrow=block;exitX=0.5;exitY=1.01;entryX=0.5;entryY=0.01;rounded=0;" edge="1" parent="1" source="us2BGRI-BixtVyZWDCnk-3" target="us2BGRI-BixtVyZWDCnk-4">
          <mxGeometry relative="1" as="geometry">
            <Array as="points" />
          </mxGeometry>
        </mxCell>
        <mxCell id="us2BGRI-BixtVyZWDCnk-19" value="" style="curved=1;startArrow=none;endArrow=block;exitX=0.79;exitY=1.01;entryX=0.5;entryY=0;rounded=0;" edge="1" parent="1" source="us2BGRI-BixtVyZWDCnk-4" target="us2BGRI-BixtVyZWDCnk-5">
          <mxGeometry relative="1" as="geometry">
            <Array as="points">
              <mxPoint x="361" y="441" />
            </Array>
          </mxGeometry>
        </mxCell>
        <mxCell id="us2BGRI-BixtVyZWDCnk-20" value="Belum" style="curved=1;startArrow=none;endArrow=block;exitX=0.09;exitY=1;entryX=0.77;entryY=0;rounded=0;" edge="1" parent="1" source="us2BGRI-BixtVyZWDCnk-5" target="us2BGRI-BixtVyZWDCnk-6">
          <mxGeometry relative="1" as="geometry">
            <Array as="points">
              <mxPoint x="262" y="668" />
            </Array>
          </mxGeometry>
        </mxCell>
        <mxCell id="us2BGRI-BixtVyZWDCnk-21" value="" style="curved=1;startArrow=none;endArrow=block;exitX=0.49;exitY=0;entryX=0.25;entryY=1.01;rounded=0;" edge="1" parent="1" source="us2BGRI-BixtVyZWDCnk-6" target="us2BGRI-BixtVyZWDCnk-4">
          <mxGeometry relative="1" as="geometry">
            <Array as="points">
              <mxPoint x="127" y="668" />
              <mxPoint x="127" y="441" />
            </Array>
          </mxGeometry>
        </mxCell>
        <mxCell id="us2BGRI-BixtVyZWDCnk-22" value="Ya" style="curved=1;startArrow=none;endArrow=block;exitX=0.73;exitY=1;entryX=0.5;entryY=0;rounded=0;" edge="1" parent="1" source="us2BGRI-BixtVyZWDCnk-5" target="us2BGRI-BixtVyZWDCnk-7">
          <mxGeometry relative="1" as="geometry">
            <Array as="points">
              <mxPoint x="415" y="668" />
            </Array>
          </mxGeometry>
        </mxCell>
        <mxCell id="us2BGRI-BixtVyZWDCnk-23" value="" style="curved=1;startArrow=none;endArrow=block;exitX=0.5;exitY=1;entryX=0.5;entryY=0;rounded=0;" edge="1" parent="1" source="us2BGRI-BixtVyZWDCnk-7" target="us2BGRI-BixtVyZWDCnk-8">
          <mxGeometry relative="1" as="geometry">
            <Array as="points" />
          </mxGeometry>
        </mxCell>
        <mxCell id="us2BGRI-BixtVyZWDCnk-24" value="" style="curved=1;startArrow=none;endArrow=block;exitX=0.5;exitY=1;entryX=0.5;entryY=0;rounded=0;" edge="1" parent="1" source="us2BGRI-BixtVyZWDCnk-8" target="us2BGRI-BixtVyZWDCnk-9">
          <mxGeometry relative="1" as="geometry">
            <Array as="points" />
          </mxGeometry>
        </mxCell>
        <mxCell id="us2BGRI-BixtVyZWDCnk-25" value="" style="curved=1;startArrow=none;endArrow=block;exitX=0.5;exitY=1;entryX=0.5;entryY=0;rounded=0;" edge="1" parent="1" source="us2BGRI-BixtVyZWDCnk-9" target="us2BGRI-BixtVyZWDCnk-10">
          <mxGeometry relative="1" as="geometry">
            <Array as="points" />
          </mxGeometry>
        </mxCell>
        <mxCell id="us2BGRI-BixtVyZWDCnk-26" value="" style="curved=1;startArrow=none;endArrow=block;exitX=0.5;exitY=1;entryX=0.5;entryY=0;rounded=0;" edge="1" parent="1" source="us2BGRI-BixtVyZWDCnk-10" target="us2BGRI-BixtVyZWDCnk-11">
          <mxGeometry relative="1" as="geometry">
            <Array as="points" />
          </mxGeometry>
        </mxCell>
        <mxCell id="us2BGRI-BixtVyZWDCnk-27" value="" style="curved=1;startArrow=none;endArrow=block;exitX=0.5;exitY=1.01;entryX=0.5;entryY=0.01;rounded=0;" edge="1" parent="1" source="us2BGRI-BixtVyZWDCnk-11" target="us2BGRI-BixtVyZWDCnk-12">
          <mxGeometry relative="1" as="geometry">
            <Array as="points" />
          </mxGeometry>
        </mxCell>
        <mxCell id="us2BGRI-BixtVyZWDCnk-28" value="" style="curved=1;startArrow=none;endArrow=block;exitX=0.77;exitY=1.01;entryX=0.5;entryY=0;rounded=0;" edge="1" parent="1" source="us2BGRI-BixtVyZWDCnk-12" target="us2BGRI-BixtVyZWDCnk-13">
          <mxGeometry relative="1" as="geometry">
            <Array as="points">
              <mxPoint x="500" y="1357" />
            </Array>
          </mxGeometry>
        </mxCell>
        <mxCell id="us2BGRI-BixtVyZWDCnk-29" value="Ya" style="curved=1;startArrow=none;endArrow=block;exitX=0;exitY=0.78;entryX=0.72;entryY=0;rounded=0;" edge="1" parent="1" source="us2BGRI-BixtVyZWDCnk-13" target="us2BGRI-BixtVyZWDCnk-14">
          <mxGeometry relative="1" as="geometry">
            <Array as="points">
              <mxPoint x="274" y="1596" />
            </Array>
          </mxGeometry>
        </mxCell>
        <mxCell id="us2BGRI-BixtVyZWDCnk-30" value="Tidak" style="curved=1;startArrow=none;endArrow=block;exitX=0.5;exitY=1;entryX=0.59;entryY=0;rounded=0;" edge="1" parent="1" source="us2BGRI-BixtVyZWDCnk-13" target="us2BGRI-BixtVyZWDCnk-15">
          <mxGeometry relative="1" as="geometry">
            <Array as="points">
              <mxPoint x="500" y="1596" />
            </Array>
          </mxGeometry>
        </mxCell>
        <mxCell id="us2BGRI-BixtVyZWDCnk-31" value="" style="curved=1;startArrow=none;endArrow=block;exitX=0.44;exitY=0;entryX=0;entryY=0.78;rounded=0;" edge="1" parent="1" source="us2BGRI-BixtVyZWDCnk-14" target="us2BGRI-BixtVyZWDCnk-12">
          <mxGeometry relative="1" as="geometry">
            <Array as="points">
              <mxPoint x="126" y="1596" />
              <mxPoint x="126" y="1357" />
            </Array>
          </mxGeometry>
        </mxCell>
        <mxCell id="us2BGRI-BixtVyZWDCnk-32" value="" style="curved=1;startArrow=none;endArrow=block;exitX=0.35;exitY=0;entryX=0.38;entryY=1.01;rounded=0;" edge="1" parent="1" source="us2BGRI-BixtVyZWDCnk-15" target="us2BGRI-BixtVyZWDCnk-12">
          <mxGeometry relative="1" as="geometry">
            <Array as="points">
              <mxPoint x="377" y="1596" />
              <mxPoint x="377" y="1357" />
            </Array>
          </mxGeometry>
        </mxCell>
        <mxCell id="us2BGRI-BixtVyZWDCnk-33" value="Mulai" style="ellipse;whiteSpace=wrap;html=1;" vertex="1" parent="1">
          <mxGeometry x="173" y="-10" width="120" height="80" as="geometry" />
        </mxCell>
      </root>
    </mxGraphModel>
  </diagram>
</mxfile>
